<svg xmlns="http://www.w3.org/2000/svg" xmlns:xlink="http://www.w3.org/1999/xlink" contentStyleType="text/css" data-diagram-type="SEQUENCE" height="764px" preserveAspectRatio="none" style="width:888px;height:764px;background:#FFFFFF;" version="1.1" viewBox="0 0 888 764" width="888px" zoomAndPan="magnify"><defs/><g><line style="stroke:#181818;stroke-width:0.5;stroke-dasharray:5.0,5.0;" x1="34" x2="34" y1="81.2969" y2="683.9531"/><line style="stroke:#181818;stroke-width:0.5;stroke-dasharray:5.0,5.0;" x1="248.0073" x2="248.0073" y1="81.2969" y2="683.9531"/><line style="stroke:#181818;stroke-width:0.5;stroke-dasharray:5.0,5.0;" x1="582.3647" x2="582.3647" y1="81.2969" y2="683.9531"/><line style="stroke:#181818;stroke-width:0.5;stroke-dasharray:5.0,5.0;" x1="791.8774" x2="791.8774" y1="81.2969" y2="683.9531"/><text fill="#000000" font-family="sans-serif" font-size="14" lengthAdjust="spacing" textLength="53.2041" x="5" y="77.9951">Usuario</text><ellipse cx="34.6021" cy="13.5" fill="#E2E2F0" rx="8" ry="8" style="stroke:#181818;stroke-width:0.5;"/><path d="M34.6021,21.5 L34.6021,48.5 M21.6021,29.5 L47.6021,29.5 M34.6021,48.5 L21.6021,63.5 M34.6021,48.5 L47.6021,63.5 " fill="none" style="stroke:#181818;stroke-width:0.5;"/><text fill="#000000" font-family="sans-serif" font-size="14" lengthAdjust="spacing" textLength="53.2041" x="5" y="695.9482">Usuario</text><ellipse cx="34.6021" cy="707.75" fill="#E2E2F0" rx="8" ry="8" style="stroke:#181818;stroke-width:0.5;"/><path d="M34.6021,715.75 L34.6021,742.75 M21.6021,723.75 L47.6021,723.75 M34.6021,742.75 L21.6021,757.75 M34.6021,742.75 L47.6021,757.75 " fill="none" style="stroke:#181818;stroke-width:0.5;"/><text fill="#000000" font-family="sans-serif" font-size="14" lengthAdjust="spacing" textLength="200.1699" x="145.0073" y="77.9951">Frontend (App React Native)</text><ellipse cx="248.0923" cy="49" fill="#E2E2F0" rx="12" ry="12" style="stroke:#181818;stroke-width:0.5;"/><line style="stroke:#181818;stroke-width:0.5;" x1="236.0923" x2="260.0923" y1="63" y2="63"/><text fill="#000000" font-family="sans-serif" font-size="14" lengthAdjust="spacing" textLength="200.1699" x="145.0073" y="695.9482">Frontend (App React Native)</text><ellipse cx="248.0923" cy="715.25" fill="#E2E2F0" rx="12" ry="12" style="stroke:#181818;stroke-width:0.5;"/><line style="stroke:#181818;stroke-width:0.5;" x1="236.0923" x2="260.0923" y1="729.25" y2="729.25"/><text fill="#000000" font-family="sans-serif" font-size="14" lengthAdjust="spacing" textLength="203.5127" x="478.3647" y="77.9951">Backend (Node.js + Express)</text><ellipse cx="583.1211" cy="49" fill="#E2E2F0" rx="12" ry="12" style="stroke:#181818;stroke-width:0.5;"/><line style="stroke:#181818;stroke-width:0.5;" x1="571.1211" x2="595.1211" y1="63" y2="63"/><text fill="#000000" font-family="sans-serif" font-size="14" lengthAdjust="spacing" textLength="203.5127" x="478.3647" y="695.9482">Backend (Node.js + Express)</text><ellipse cx="583.1211" cy="715.25" fill="#E2E2F0" rx="12" ry="12" style="stroke:#181818;stroke-width:0.5;"/><line style="stroke:#181818;stroke-width:0.5;" x1="571.1211" x2="595.1211" y1="729.25" y2="729.25"/><text fill="#000000" font-family="sans-serif" font-size="14" lengthAdjust="spacing" textLength="183.9277" x="697.8774" y="77.9951">Base de Datos (MongoDB)</text><ellipse cx="792.8413" cy="49" fill="#E2E2F0" rx="12" ry="12" style="stroke:#181818;stroke-width:0.5;"/><line style="stroke:#181818;stroke-width:0.5;" x1="780.8413" x2="804.8413" y1="63" y2="63"/><text fill="#000000" font-family="sans-serif" font-size="14" lengthAdjust="spacing" textLength="183.9277" x="697.8774" y="695.9482">Base de Datos (MongoDB)</text><ellipse cx="792.8413" cy="715.25" fill="#E2E2F0" rx="12" ry="12" style="stroke:#181818;stroke-width:0.5;"/><line style="stroke:#181818;stroke-width:0.5;" x1="780.8413" x2="804.8413" y1="729.25" y2="729.25"/><polygon fill="#181818" points="236.0923,108.4297,246.0923,112.4297,236.0923,116.4297,240.0923,112.4297" style="stroke:#181818;stroke-width:1;"/><line style="stroke:#181818;stroke-width:1;" x1="34.6021" x2="242.0923" y1="112.4297" y2="112.4297"/><text fill="#000000" font-family="sans-serif" font-size="13" lengthAdjust="spacing" textLength="85.2363" x="41.6021" y="107.3638">Iniciar sesi&#243;n</text><polygon fill="#181818" points="571.1211,137.5625,581.1211,141.5625,571.1211,145.5625,575.1211,141.5625" style="stroke:#181818;stroke-width:1;"/><line style="stroke:#181818;stroke-width:1;" x1="248.0923" x2="577.1211" y1="141.5625" y2="141.5625"/><text fill="#000000" font-family="sans-serif" font-size="13" lengthAdjust="spacing" textLength="239.4844" x="255.0923" y="136.4966">POST /auth/login (email, contrase&#241;a)</text><polygon fill="#181818" points="780.8413,166.6953,790.8413,170.6953,780.8413,174.6953,784.8413,170.6953" style="stroke:#181818;stroke-width:1;"/><line style="stroke:#181818;stroke-width:1;" x1="583.1211" x2="786.8413" y1="170.6953" y2="170.6953"/><text fill="#000000" font-family="sans-serif" font-size="13" lengthAdjust="spacing" textLength="106.7549" x="590.1211" y="165.6294">Verificar usuario</text><polygon fill="#181818" points="594.1211,195.8281,584.1211,199.8281,594.1211,203.8281,590.1211,199.8281" style="stroke:#181818;stroke-width:1;"/><line style="stroke:#181818;stroke-width:1;" x1="588.1211" x2="791.8413" y1="199.8281" y2="199.8281"/><text fill="#000000" font-family="sans-serif" font-size="13" lengthAdjust="spacing" textLength="127.7275" x="600.1211" y="194.7622">Usuario encontrado</text><polygon fill="#181818" points="259.0923,224.9609,249.0923,228.9609,259.0923,232.9609,255.0923,228.9609" style="stroke:#181818;stroke-width:1;"/><line style="stroke:#181818;stroke-width:1;" x1="253.0923" x2="582.1211" y1="228.9609" y2="228.9609"/><text fill="#000000" font-family="sans-serif" font-size="13" lengthAdjust="spacing" textLength="162.0112" x="265.0923" y="223.895">Retornar token y usuario</text><polygon fill="#181818" points="45.6021,254.0938,35.6021,258.0938,45.6021,262.0938,41.6021,258.0938" style="stroke:#181818;stroke-width:1;"/><line style="stroke:#181818;stroke-width:1;" x1="39.6021" x2="247.0923" y1="258.0938" y2="258.0938"/><text fill="#000000" font-family="sans-serif" font-size="13" lengthAdjust="spacing" textLength="166.7085" x="51.6021" y="253.0278">Mostrar pantalla principal</text><polygon fill="#181818" points="236.0923,283.2266,246.0923,287.2266,236.0923,291.2266,240.0923,287.2266" style="stroke:#181818;stroke-width:1;"/><line style="stroke:#181818;stroke-width:1;" x1="34.6021" x2="242.0923" y1="287.2266" y2="287.2266"/><text fill="#000000" font-family="sans-serif" font-size="13" lengthAdjust="spacing" textLength="122.3257" x="41.6021" y="282.1606">Consultar reservas</text><polygon fill="#181818" points="571.1211,312.3594,581.1211,316.3594,571.1211,320.3594,575.1211,316.3594" style="stroke:#181818;stroke-width:1;"/><line style="stroke:#181818;stroke-width:1;" x1="248.0923" x2="577.1211" y1="316.3594" y2="316.3594"/><text fill="#000000" font-family="sans-serif" font-size="13" lengthAdjust="spacing" textLength="166.626" x="255.0923" y="311.2935">GET /reservations (token)</text><polygon fill="#181818" points="780.8413,341.4922,790.8413,345.4922,780.8413,349.4922,784.8413,345.4922" style="stroke:#181818;stroke-width:1;"/><line style="stroke:#181818;stroke-width:1;" x1="583.1211" x2="786.8413" y1="345.4922" y2="345.4922"/><text fill="#000000" font-family="sans-serif" font-size="13" lengthAdjust="spacing" textLength="113.1851" x="590.1211" y="340.4263">Obtener reservas</text><polygon fill="#181818" points="594.1211,370.625,584.1211,374.625,594.1211,378.625,590.1211,374.625" style="stroke:#181818;stroke-width:1;"/><line style="stroke:#181818;stroke-width:1;" x1="588.1211" x2="791.8413" y1="374.625" y2="374.625"/><text fill="#000000" font-family="sans-serif" font-size="13" lengthAdjust="spacing" textLength="117" x="600.1211" y="369.5591">Retornar reservas</text><polygon fill="#181818" points="259.0923,399.7578,249.0923,403.7578,259.0923,407.7578,255.0923,403.7578" style="stroke:#181818;stroke-width:1;"/><line style="stroke:#181818;stroke-width:1;" x1="253.0923" x2="582.1211" y1="403.7578" y2="403.7578"/><text fill="#000000" font-family="sans-serif" font-size="13" lengthAdjust="spacing" textLength="117" x="265.0923" y="398.6919">Retornar reservas</text><polygon fill="#181818" points="45.6021,428.8906,35.6021,432.8906,45.6021,436.8906,41.6021,432.8906" style="stroke:#181818;stroke-width:1;"/><line style="stroke:#181818;stroke-width:1;" x1="39.6021" x2="247.0923" y1="432.8906" y2="432.8906"/><text fill="#000000" font-family="sans-serif" font-size="13" lengthAdjust="spacing" textLength="109.7192" x="51.6021" y="427.8247">Mostrar reservas</text><polygon fill="#181818" points="236.0923,458.0234,246.0923,462.0234,236.0923,466.0234,240.0923,462.0234" style="stroke:#181818;stroke-width:1;"/><line style="stroke:#181818;stroke-width:1;" x1="34.6021" x2="242.0923" y1="462.0234" y2="462.0234"/><text fill="#000000" font-family="sans-serif" font-size="13" lengthAdjust="spacing" textLength="189.4902" x="41.6021" y="456.9575">Crear/Editar/Eliminar reserva</text><polygon fill="#181818" points="571.1211,487.1563,581.1211,491.1563,571.1211,495.1563,575.1211,491.1563" style="stroke:#181818;stroke-width:1;"/><line style="stroke:#181818;stroke-width:1;" x1="248.0923" x2="577.1211" y1="491.1563" y2="491.1563"/><text fill="#000000" font-family="sans-serif" font-size="13" lengthAdjust="spacing" textLength="311.0288" x="255.0923" y="486.0903">POST/PUT/DELETE /reservations (datos reserva)</text><polygon fill="#181818" points="780.8413,516.2891,790.8413,520.2891,780.8413,524.2891,784.8413,520.2891" style="stroke:#181818;stroke-width:1;"/><line style="stroke:#181818;stroke-width:1;" x1="583.1211" x2="786.8413" y1="520.2891" y2="520.2891"/><text fill="#000000" font-family="sans-serif" font-size="13" lengthAdjust="spacing" textLength="112.9312" x="590.1211" y="515.2231">Modificar reserva</text><polygon fill="#181818" points="594.1211,545.4219,584.1211,549.4219,594.1211,553.4219,590.1211,549.4219" style="stroke:#181818;stroke-width:1;"/><line style="stroke:#181818;stroke-width:1;" x1="588.1211" x2="791.8413" y1="549.4219" y2="549.4219"/><text fill="#000000" font-family="sans-serif" font-size="13" lengthAdjust="spacing" textLength="110.9761" x="600.1211" y="544.356">Confirmar acci&#243;n</text><polygon fill="#181818" points="259.0923,574.5547,249.0923,578.5547,259.0923,582.5547,255.0923,578.5547" style="stroke:#181818;stroke-width:1;"/><line style="stroke:#181818;stroke-width:1;" x1="253.0923" x2="582.1211" y1="578.5547" y2="578.5547"/><text fill="#000000" font-family="sans-serif" font-size="13" lengthAdjust="spacing" textLength="145.5645" x="265.0923" y="573.4888">Retornar confirmaci&#243;n</text><polygon fill="#181818" points="45.6021,603.6875,35.6021,607.6875,45.6021,611.6875,41.6021,607.6875" style="stroke:#181818;stroke-width:1;"/><line style="stroke:#181818;stroke-width:1;" x1="39.6021" x2="247.0923" y1="607.6875" y2="607.6875"/><text fill="#000000" font-family="sans-serif" font-size="13" lengthAdjust="spacing" textLength="115.064" x="51.6021" y="602.6216">Mostrar resultado</text><polygon fill="#181818" points="236.0923,632.8203,246.0923,636.8203,236.0923,640.8203,240.0923,636.8203" style="stroke:#181818;stroke-width:1;"/><line style="stroke:#181818;stroke-width:1;" x1="34.6021" x2="242.0923" y1="636.8203" y2="636.8203"/><text fill="#000000" font-family="sans-serif" font-size="13" lengthAdjust="spacing" textLength="86.5566" x="41.6021" y="631.7544">Cerrar sesi&#243;n</text><polygon fill="#181818" points="45.6021,661.9531,35.6021,665.9531,45.6021,669.9531,41.6021,665.9531" style="stroke:#181818;stroke-width:1;"/><line style="stroke:#181818;stroke-width:1;" x1="39.6021" x2="247.0923" y1="665.9531" y2="665.9531"/><text fill="#000000" font-family="sans-serif" font-size="13" lengthAdjust="spacing" textLength="102.959" x="51.6021" y="660.8872">Redirigir a login</text><!--SRC=[RP9BJiD038RtEONLLIeUsRD08YH5IFIXqh0t4xSOqfbePbhHOo6Eq8lX9caqBLsDDFxzsvzjLDvOADm6BHj01qL4shFVmM1aZVQaIuWVwXhcXCh313rlQJWuA4TvBqrHVJNAYIdfzjF15UJVjINdMcaQIXr1IP2XDmxYiT4hawMjB4kZg82RUx66EtZMh1WjE7Ay_zMHV4eeFOHcqzS59BZn7qbbLgmXfZLoTGrAMhPIOV-3moXj4h9K4jx8yfALk6rQr4Y-Zsv7Uj9jUccwrAQDESc4j6Hw8uomwntQVWgHZ8sJD0irQezLXL1Rrefhh4AUHwFTflAYay6GtQ8BaPvo8Ue2daKASLFm16FwBWkXm22WwFliWvSWpag7tVUXi6TBQ9EyP7zuAbvpO7A-aMHMB98iVyaN-JbAsMox-pj16fkosypHDM2IaItPhYM8IZL7S8b9TIeLdCaPs67kijQGZApzTrn5OrkovHLBJMYEwmy0]--></g></svg>